<?xml version="1.0" encoding="utf-8"?>
<!-- Generator: Adobe Illustrator 17.1.0, SVG Export Plug-In . SVG Version: 6.00 Build 0)  -->
<!DOCTYPE svg PUBLIC "-//W3C//DTD SVG 1.1//EN" "http://www.w3.org/Graphics/SVG/1.1/DTD/svg11.dtd">
<svg version="1.1" id="Layer_1" xmlns="http://www.w3.org/2000/svg" xmlns:xlink="http://www.w3.org/1999/xlink" x="0px" y="0px"
	 viewBox="0 0 1000 148.3" enable-background="new 0 0 1000 148.3" xml:space="preserve">
<g>
	<path fill="#FFFFFF" d="M283.7,13.5h45.5v21.6h-10.5v110.8h-36.4L226.6,45.6v78.7h10.3v21.6h-45.1v-21.6h10.7V35.1H192V13.5h45.8
		L294.6,116v-81h-10.9V13.5z"/>
	<path fill="#FFFFFF" d="M320.9,45.4h34.4v65c0,11.6,4.7,17.5,14.5,17.5c12,0,22.9-12.6,22.9-26.3V64.9h-9.8V45.4h34.4v81h9.2v19.5
		h-33.2v-12.2c-9,7.5-17.7,14.7-32.5,14.7c-19.2,0-30.1-11.8-30.1-32.7V64.9h-9.8V45.4z"/>
	<path fill="#FFFFFF" d="M436.2,13.3h24.4v32.1h19.7v19.5h-19.7v51.8c0,7.1,3.8,10.5,11.8,10.5h7.9v18.6c-5.8,0.9-10.9,1.3-15.2,1.3
		c-10.3,0-29.1,0-29.1-19.5V64.9h-12.4V45.4h12.6V13.3z"/>
	<path fill="#FFFFFF" d="M523.7,61c6.6-12.8,13.9-18,25.2-18c3.4,0,6.4,0.4,11.3,1.3v23.5c-4.5-0.9-8.1-1.3-12.2-1.3
		c-13.1,0-24.2,9.4-24.2,20.9v39.1h12v19.5h-46.4v-19.5h9.8V64.9h-9.6V45.4h34.2V61z"/>
	<path fill="#FFFFFF" d="M566.2,45.4h34.2v81h8.5v19.5h-43v-19.5h10V64.9h-9.6V45.4z M573.5,7.6h27v23.7h-27V7.6z"/>
	<path fill="#FFFFFF" d="M612.6,13.5h105.8v51.8h-22V35.1h-17.3v89.2h12.2v21.6h-51.5v-21.6h12V35.1h-17.3v30.2h-22V13.5z"/>
	<path fill="#FFFFFF" d="M755.5,61c6.6-12.8,13.9-18,25.2-18c3.4,0,6.4,0.4,11.3,1.3v23.5c-4.5-0.9-8.1-1.3-12.2-1.3
		c-13.1,0-24.2,9.4-24.2,20.9v39.1h12v19.5h-46.4v-19.5h9.8V64.9h-9.6V45.4h34.2V61z"/>
	<path fill="#FFFFFF" d="M871.8,126.4h8.6v19.5h-31.2v-11.8c-10.3,10.3-18,13.9-30.4,13.9c-20.1,0-35.5-13.5-35.5-31.4
		c0-29.5,33.2-32.7,65.4-35.7c-0.2-15.4-3.9-19.3-18.6-19.3c-10.3,0-17.5,5.8-18,15.2L787.7,76C789,55.9,805.1,43,829,43
		c27.8,0,42.8,12.6,42.8,35.5V126.4z M848.3,98.4c-23.7,2.3-39.1,4.3-39.1,18.2c0,8.3,6.6,13.7,16.5,13.7c12.8,0,22.5-9.6,22.5-22.2
		V98.4z"/>
	<path fill="#FFFFFF" d="M870.3,7.3h33.8v73.1l36.4-34.9h21.8v19.5h-10l-17.5,15.4l27.8,46h8.3v19.5h-23.3l-29.5-49.6l-14.1,11.8
		v18.2h10.3v19.5h-43v-19.5h8.1V26.8h-9.2V7.3z"/>
</g>
<rect x="22" y="84.4" fill="#FFFFFF" width="38" height="62"/>
<rect x="75" y="19.4" fill="#FFFFFF" width="38" height="127"/>
<rect x="126" y="55.4" fill="#FFFFFF" width="40" height="91"/>
</svg>
